<svg xmlns="http://www.w3.org/2000/svg" xmlns:xlink="http://www.w3.org/1999/xlink" version="1.1" x="0px" y="0px" viewBox="0 0 96 96" style="enable-background:new 0 0 96 96;" xml:space="preserve"><style type="text/css">
	.st0{fill-rule:evenodd;clip-rule:evenodd;}
</style><path class="st0" d="M48,6.11c11.567,0,22.04,4.689,29.621,12.27C85.201,25.96,89.89,36.433,89.89,48s-4.689,22.04-12.269,29.621  C70.04,85.201,59.567,89.89,48,89.89s-22.04-4.689-29.621-12.269C10.799,70.04,6.11,59.567,6.11,48  c0-11.567,4.689-22.04,12.27-29.621C25.96,10.799,36.433,6.11,48,6.11L48,6.11z M67.354,49.734c0.304-0.169,0.567-0.421,0.753-0.744  c0.547-0.951,0.219-2.165-0.732-2.712l-14.396-8.312l-14.23-8.216c-0.326-0.232-0.725-0.368-1.155-0.368  c-1.102,0-1.995,0.893-1.995,1.995V48v16.623h0.008c0,0.336,0.085,0.677,0.264,0.99c0.547,0.951,1.761,1.279,2.712,0.732  l14.396-8.312L67.354,49.734z" fill="rgb(170, 170, 170)"/>
</svg>