<svg width="1279" height="1228" xmlns="http://www.w3.org/2000/svg" xmlns:xlink="http://www.w3.org/1999/xlink" xml:space="preserve" overflow="hidden"><g transform="translate(-765 -513)"><g><path d="M0 0 309.825 158.515" stroke="#FDB435" stroke-width="50.4167" stroke-linecap="round" stroke-linejoin="miter" stroke-miterlimit="8" stroke-opacity="1" fill="none" fill-rule="evenodd" transform="matrix(-1 0 0 1 1718.83 1045)"/><path d="M1717 1052 2011.8 1200.72" stroke="#FDB435" stroke-width="50.4167" stroke-linecap="round" stroke-linejoin="miter" stroke-miterlimit="8" stroke-opacity="1" fill="none" fill-rule="evenodd"/><path d="M1409 1204 1714.73 1360.35" stroke="#FDB435" stroke-width="50.4167" stroke-linecap="round" stroke-linejoin="miter" stroke-miterlimit="8" stroke-opacity="1" fill="none" fill-rule="evenodd"/><path d="M0 0 303.269 150.95" stroke="#FDB435" stroke-width="50.4167" stroke-linecap="round" stroke-linejoin="miter" stroke-miterlimit="8" stroke-opacity="1" fill="none" fill-rule="evenodd" transform="matrix(-1 0 0 1 2012.27 1207)"/><path d="M0 0 309.825 158.515" stroke="#FDB435" stroke-width="50.4167" stroke-linecap="round" stroke-linejoin="miter" stroke-miterlimit="8" stroke-opacity="1" fill="none" fill-rule="evenodd" transform="matrix(-1 0 0 1 1103.83 1046)"/><path d="M1104 1046 1409.73 1200.19" stroke="#FDB435" stroke-width="50.4167" stroke-linecap="round" stroke-linejoin="miter" stroke-miterlimit="8" stroke-opacity="1" fill="none" fill-rule="evenodd"/><path d="M799 1203 1104.73 1359.35" stroke="#FDB435" stroke-width="50.4167" stroke-linecap="round" stroke-linejoin="miter" stroke-miterlimit="8" stroke-opacity="1" fill="none" fill-rule="evenodd"/><path d="M0 0 309.825 158.515" stroke="#FDB435" stroke-width="50.4167" stroke-linecap="round" stroke-linejoin="miter" stroke-miterlimit="8" stroke-opacity="1" fill="none" fill-rule="evenodd" transform="matrix(-1 0 0 1 1409.83 1200)"/><path d="M0 0 303.877 152.841" stroke="#FDB435" stroke-width="50.4167" stroke-linecap="round" stroke-linejoin="miter" stroke-miterlimit="8" stroke-opacity="1" fill="none" fill-rule="evenodd" transform="matrix(-1 0 0 1 1408.88 540)"/><path d="M1411 540 1709.52 693.387" stroke="#FDB435" stroke-width="50.4167" stroke-linecap="round" stroke-linejoin="miter" stroke-miterlimit="8" stroke-opacity="1" fill="none" fill-rule="evenodd"/><path d="M1105 701 1407.2 850.681" stroke="#FDB435" stroke-width="50.4167" stroke-linecap="round" stroke-linejoin="miter" stroke-miterlimit="8" stroke-opacity="1" fill="none" fill-rule="evenodd"/><path d="M0 0 296.73 153.111" stroke="#FDB435" stroke-width="50.4167" stroke-linecap="round" stroke-linejoin="miter" stroke-miterlimit="8" stroke-opacity="1" fill="none" fill-rule="evenodd" transform="matrix(-1 0 0 1 1703.73 696)"/><path d="M0 0 3.33862 351.375" stroke="#FDB435" stroke-width="50.4167" stroke-linecap="round" stroke-linejoin="miter" stroke-miterlimit="8" stroke-opacity="1" fill="none" fill-rule="evenodd" transform="matrix(-1 0 0 1 1103.34 696)"/><path d="M1712 696 1712 1046.1" stroke="#FDB435" stroke-width="50.4167" stroke-linecap="round" stroke-linejoin="miter" stroke-miterlimit="8" stroke-opacity="1" fill="none" fill-rule="evenodd"/><path d="M1407 860 1407 1190.37" stroke="#FDB435" stroke-width="50.4167" stroke-linecap="round" stroke-linejoin="miter" stroke-miterlimit="8" stroke-opacity="1" fill="none" fill-rule="evenodd"/><path d="M2018 1207 2018 1555.06" stroke="#FDB435" stroke-width="50.4167" stroke-linecap="round" stroke-linejoin="miter" stroke-miterlimit="8" stroke-opacity="1" fill="none" fill-rule="evenodd"/><path d="M1710 1361 1710 1712.3" stroke="#FDB435" stroke-width="50.4167" stroke-linecap="round" stroke-linejoin="miter" stroke-miterlimit="8" stroke-opacity="1" fill="none" fill-rule="evenodd"/><path d="M1409 1214 1409 1565.3" stroke="#FDB435" stroke-width="50.4167" stroke-linecap="round" stroke-linejoin="miter" stroke-miterlimit="8" stroke-opacity="1" fill="none" fill-rule="evenodd"/><path d="M1103 1358 1103 1709.3" stroke="#FDB435" stroke-width="50.4167" stroke-linecap="round" stroke-linejoin="miter" stroke-miterlimit="8" stroke-opacity="1" fill="none" fill-rule="evenodd"/><path d="M794 1214 794 1554.97" stroke="#FDB435" stroke-width="50.4167" stroke-linecap="round" stroke-linejoin="miter" stroke-miterlimit="8" stroke-opacity="1" fill="none" fill-rule="evenodd"/><path d="M0 0 298.411 154.118" stroke="#FDB435" stroke-width="50.4167" stroke-linecap="round" stroke-linejoin="miter" stroke-miterlimit="8" stroke-opacity="1" fill="none" fill-rule="evenodd" transform="matrix(-1 0 0 1 2013.41 1558)"/><path d="M0 0 308.751 153.038" stroke="#FDB435" stroke-width="50.4167" stroke-linecap="round" stroke-linejoin="miter" stroke-miterlimit="8" stroke-opacity="1" fill="none" fill-rule="evenodd" transform="matrix(-1 0 0 1 1411.75 1559)"/><path d="M1403 1558 1704.18 1712.12" stroke="#FDB435" stroke-width="50.4167" stroke-linecap="round" stroke-linejoin="miter" stroke-miterlimit="8" stroke-opacity="1" fill="none" fill-rule="evenodd"/><path d="M796 1558 1105.1 1712.12" stroke="#FDB435" stroke-width="50.4167" stroke-linecap="round" stroke-linejoin="miter" stroke-miterlimit="8" stroke-opacity="1" fill="none" fill-rule="evenodd"/><path d="M1583 924C1583 909.641 1594.64 898 1609 898 1623.36 898 1635 909.641 1635 924 1635 938.359 1623.36 950 1609 950 1594.64 950 1583 938.359 1583 924Z" fill="#FDB435" fill-rule="evenodd" fill-opacity="1"/><path d="M1508 1000C1508 985.64 1519.64 974 1534 974 1548.36 974 1560 985.64 1560 1000 1560 1014.36 1548.36 1026 1534 1026 1519.64 1026 1508 1014.36 1508 1000Z" fill="#FDB435" fill-rule="evenodd" fill-opacity="1"/><path d="M1431 1078C1431 1063.64 1442.64 1052 1457 1052 1471.36 1052 1483 1063.64 1483 1078 1483 1092.36 1471.36 1104 1457 1104 1442.64 1104 1431 1092.36 1431 1078Z" fill="#FDB435" fill-rule="evenodd" fill-opacity="1"/><path d="M1583 1078C1583 1063.64 1594.64 1052 1609 1052 1623.36 1052 1635 1063.64 1635 1078 1635 1092.36 1623.36 1104 1609 1104 1594.64 1104 1583 1092.36 1583 1078Z" fill="#FDB435" fill-rule="evenodd" fill-opacity="1"/><path d="M1660 1000C1660 985.64 1671.64 974 1686 974 1700.36 974 1712 985.64 1712 1000 1712 1014.36 1700.36 1026 1686 1026 1671.64 1026 1660 1014.36 1660 1000Z" fill="#FDB435" fill-rule="evenodd" fill-opacity="1"/><path d="M1659 849C1659 834.641 1670.64 823 1685 823 1699.36 823 1711 834.641 1711 849 1711 863.359 1699.36 875 1685 875 1670.64 875 1659 863.359 1659 849Z" fill="#FDB435" fill-rule="evenodd" fill-opacity="1"/><path d="M1583 771C1583 756.641 1594.64 745 1609 745 1623.36 745 1635 756.641 1635 771 1635 785.359 1623.36 797 1609 797 1594.64 797 1583 785.359 1583 771Z" fill="#FDB435" fill-rule="evenodd" fill-opacity="1"/><path d="M1508 847C1508 832.641 1519.64 821 1534 821 1548.36 821 1560 832.641 1560 847 1560 861.359 1548.36 873 1534 873 1519.64 873 1508 861.359 1508 847Z" fill="#FDB435" fill-rule="evenodd" fill-opacity="1"/><path d="M1431 924C1431 909.641 1442.64 898 1457 898 1471.36 898 1483 909.641 1483 924 1483 938.359 1471.36 950 1457 950 1442.64 950 1431 938.359 1431 924Z" fill="#FDB435" fill-rule="evenodd" fill-opacity="1"/><path d="M1885 1431C1885 1416.64 1896.64 1405 1911 1405 1925.36 1405 1937 1416.64 1937 1431 1937 1445.36 1925.36 1457 1911 1457 1896.64 1457 1885 1445.36 1885 1431Z" fill="#FDB435" fill-rule="evenodd" fill-opacity="1"/><path d="M1810 1508C1810 1493.64 1821.64 1482 1836 1482 1850.36 1482 1862 1493.64 1862 1508 1862 1522.36 1850.36 1534 1836 1534 1821.64 1534 1810 1522.36 1810 1508Z" fill="#FDB435" fill-rule="evenodd" fill-opacity="1"/><path d="M1734 1586C1734 1571.64 1745.64 1560 1760 1560 1774.36 1560 1786 1571.64 1786 1586 1786 1600.36 1774.36 1612 1760 1612 1745.64 1612 1734 1600.36 1734 1586Z" fill="#FDB435" fill-rule="evenodd" fill-opacity="1"/><path d="M1885 1585C1885 1570.64 1896.64 1559 1911 1559 1925.36 1559 1937 1570.64 1937 1585 1937 1599.36 1925.36 1611 1911 1611 1896.64 1611 1885 1599.36 1885 1585Z" fill="#FDB435" fill-rule="evenodd" fill-opacity="1"/><path d="M1963 1508C1963 1493.64 1974.64 1482 1989 1482 2003.36 1482 2015 1493.64 2015 1508 2015 1522.36 2003.36 1534 1989 1534 1974.64 1534 1963 1522.36 1963 1508Z" fill="#FDB435" fill-rule="evenodd" fill-opacity="1"/><path d="M1962 1357C1962 1342.64 1973.64 1331 1988 1331 2002.36 1331 2014 1342.64 2014 1357 2014 1371.36 2002.36 1383 1988 1383 1973.64 1383 1962 1371.36 1962 1357Z" fill="#FDB435" fill-rule="evenodd" fill-opacity="1"/><path d="M1885 1279C1885 1264.64 1896.64 1253 1911 1253 1925.36 1253 1937 1264.64 1937 1279 1937 1293.36 1925.36 1305 1911 1305 1896.64 1305 1885 1293.36 1885 1279Z" fill="#FDB435" fill-rule="evenodd" fill-opacity="1"/><path d="M1810 1354.5C1810 1340.42 1821.64 1329 1836 1329 1850.36 1329 1862 1340.42 1862 1354.5 1862 1368.58 1850.36 1380 1836 1380 1821.64 1380 1810 1368.58 1810 1354.5Z" fill="#FDB435" fill-rule="evenodd" fill-opacity="1"/><path d="M1734 1431C1734 1416.64 1745.64 1405 1760 1405 1774.36 1405 1786 1416.64 1786 1431 1786 1445.36 1774.36 1457 1760 1457 1745.64 1457 1734 1445.36 1734 1431Z" fill="#FDB435" fill-rule="evenodd" fill-opacity="1"/><path d="M1278 1432C1278 1417.64 1289.64 1406 1304 1406 1318.36 1406 1330 1417.64 1330 1432 1330 1446.36 1318.36 1458 1304 1458 1289.64 1458 1278 1446.36 1278 1432Z" fill="#FDB435" fill-rule="evenodd" fill-opacity="1"/><path d="M1203 1509C1203 1494.64 1214.64 1483 1229 1483 1243.36 1483 1255 1494.64 1255 1509 1255 1523.36 1243.36 1535 1229 1535 1214.64 1535 1203 1523.36 1203 1509Z" fill="#FDB435" fill-rule="evenodd" fill-opacity="1"/><path d="M1127 1587C1127 1572.64 1138.64 1561 1153 1561 1167.36 1561 1179 1572.64 1179 1587 1179 1601.36 1167.36 1613 1153 1613 1138.64 1613 1127 1601.36 1127 1587Z" fill="#FDB435" fill-rule="evenodd" fill-opacity="1"/><path d="M1278 1586C1278 1571.64 1289.64 1560 1304 1560 1318.36 1560 1330 1571.64 1330 1586 1330 1600.36 1318.36 1612 1304 1612 1289.64 1612 1278 1600.36 1278 1586Z" fill="#FDB435" fill-rule="evenodd" fill-opacity="1"/><path d="M1356 1509C1356 1494.64 1367.64 1483 1382 1483 1396.36 1483 1408 1494.64 1408 1509 1408 1523.36 1396.36 1535 1382 1535 1367.64 1535 1356 1523.36 1356 1509Z" fill="#FDB435" fill-rule="evenodd" fill-opacity="1"/><path d="M1354 1358C1354 1343.64 1365.64 1332 1380 1332 1394.36 1332 1406 1343.64 1406 1358 1406 1372.36 1394.36 1384 1380 1384 1365.64 1384 1354 1372.36 1354 1358Z" fill="#FDB435" fill-rule="evenodd" fill-opacity="1"/><path d="M1278 1280C1278 1265.64 1289.64 1254 1304 1254 1318.36 1254 1330 1265.64 1330 1280 1330 1294.36 1318.36 1306 1304 1306 1289.64 1306 1278 1294.36 1278 1280Z" fill="#FDB435" fill-rule="evenodd" fill-opacity="1"/><path d="M1203 1356C1203 1341.64 1214.64 1330 1229 1330 1243.36 1330 1255 1341.64 1255 1356 1255 1370.36 1243.36 1382 1229 1382 1214.64 1382 1203 1370.36 1203 1356Z" fill="#FDB435" fill-rule="evenodd" fill-opacity="1"/><path d="M1127 1432C1127 1417.64 1138.64 1406 1153 1406 1167.36 1406 1179 1417.64 1179 1432 1179 1446.36 1167.36 1458 1153 1458 1138.64 1458 1127 1446.36 1127 1432Z" fill="#FDB435" fill-rule="evenodd" fill-opacity="1"/></g></g></svg>